<svg width="37" height="37" viewBox="0 0 37 37" fill="none" xmlns="http://www.w3.org/2000/svg">
<g clip-path="url(#clip0)">
<path d="M31.7569 0H5.00754C2.28239 0 0.0731201 2.23219 0.0731201 4.98582V32.014C0.0731201 34.7676 2.2823 36.9998 5.00754 36.9998H18.2002L18.2227 23.7781H14.8231C14.3813 23.7781 14.0227 23.4171 14.021 22.9707L14.0047 18.7088C14.003 18.26 14.3627 17.8952 14.8069 17.8952H18.2003V13.7771C18.2003 8.99811 21.0889 6.3959 25.3081 6.3959H28.7704C29.2133 6.3959 29.5725 6.75876 29.5725 7.20643V10.8001C29.5725 11.2476 29.2136 11.6104 28.7708 11.6106L26.6461 11.6116C24.3515 11.6116 23.9072 12.7133 23.9072 14.3301V17.8953H28.9492C29.4296 17.8953 29.8023 18.3192 29.7457 18.8012L29.2457 23.0631C29.1979 23.471 28.8556 23.7783 28.4492 23.7783H23.9297L23.9072 37H31.7571C34.4822 37 36.6914 34.7678 36.6914 32.0143V4.98582C36.6913 2.23219 34.4821 0 31.7569 0Z" fill="#FD951A"/>
</g>
<defs>
<clipPath id="clip0">
<rect width="36.6186" height="37" fill="white" transform="translate(0.0721436)"/>
</clipPath>
</defs>
</svg>
